REM DIRINDEX 1\2,1\3,1\4,1\5
REM DIRNAME "folder01","folder02","folder03","folder04","folder05"
TITLE ""
FILE "P1Q_t_0539-0548.mp3" MP3
  TRACK 01 AUDIO
    TITLE "3:cjc173_2550"
    INDEX 01 00:00:00
  TRACK 02 AUDIO
    TITLE "0:"
    INDEX 01 00:01:25
  TRACK 03 AUDIO
    TITLE "4:cjc173_2551"
    INDEX 01 00:01:47
  TRACK 04 AUDIO
    TITLE "0:"
    INDEX 01 00:04:51
  TRACK 05 AUDIO
    TITLE "5:cjc173_2552"
    INDEX 01 00:04:71
  TRACK 06 AUDIO
    TITLE "0:"
    INDEX 01 00:10:09
  TRACK 07 AUDIO
    TITLE "3:cjc173_2553"
    INDEX 01 00:10:54
  TRACK 08 AUDIO
    TITLE "0:"
    INDEX 01 00:11:67
  TRACK 09 AUDIO
    TITLE "4:cjc173_2554"
    INDEX 01 00:12:15
  TRACK 10 AUDIO
    TITLE "0:"
    INDEX 01 00:15:47
  TRACK 11 AUDIO
    TITLE "5:cjc173_2555"
    INDEX 01 00:15:69
  TRACK 12 AUDIO
    TITLE "0:"
    INDEX 01 00:20:46
  TRACK 13 AUDIO
    TITLE "3:cjc173_2556"
    INDEX 01 00:21:16
  TRACK 14 AUDIO
    TITLE "0:"
    INDEX 01 00:22:33
  TRACK 15 AUDIO
    TITLE "4:cjc173_2557"
    INDEX 01 00:22:53
  TRACK 16 AUDIO
    TITLE "0:"
    INDEX 01 00:25:28
  TRACK 17 AUDIO
    TITLE "5:cjc173_2558"
    INDEX 01 00:25:47
  TRACK 18 AUDIO
    TITLE "0:"
    INDEX 01 00:29:35
  TRACK 19 AUDIO
    TITLE "3:cjc173_2559"
    INDEX 01 00:30:06
  TRACK 20 AUDIO
    TITLE "0:"
    INDEX 01 00:31:30
  TRACK 21 AUDIO
    TITLE "4:cjc173_2560"
    INDEX 01 00:31:56
  TRACK 22 AUDIO
    TITLE "0:"
    INDEX 01 00:33:72
  TRACK 23 AUDIO
    TITLE "5:cjc173_2561"
    INDEX 01 00:34:17
  TRACK 24 AUDIO
    TITLE "0:"
    INDEX 01 00:38:32
  TRACK 25 AUDIO
    TITLE "3:cjc173_2562"
    INDEX 01 00:39:04
  TRACK 26 AUDIO
    TITLE "0:"
    INDEX 01 00:40:33
  TRACK 27 AUDIO
    TITLE "4:cjc173_2563"
    INDEX 01 00:40:55
  TRACK 28 AUDIO
    TITLE "0:"
    INDEX 01 00:44:39
  TRACK 29 AUDIO
    TITLE "5:cjc173_2564"
    INDEX 01 00:44:60
  TRACK 30 AUDIO
    TITLE "0:"
    INDEX 01 00:49:32
  TRACK 31 AUDIO
    TITLE "3:cjc173_2565"
    INDEX 01 00:50:06
  TRACK 32 AUDIO
    TITLE "0:"
    INDEX 01 00:51:31
  TRACK 33 AUDIO
    TITLE "4:cjc173_2566"
    INDEX 01 00:51:53
  TRACK 34 AUDIO
    TITLE "0:"
    INDEX 01 00:55:37
  TRACK 35 AUDIO
    TITLE "5:cjc173_2567"
    INDEX 01 00:55:56
  TRACK 36 AUDIO
    TITLE "0:"
    INDEX 01 00:59:64
  TRACK 37 AUDIO
    TITLE "3:cjc173_2568"
    INDEX 01 01:00:38
  TRACK 38 AUDIO
    TITLE "0:"
    INDEX 01 01:01:73
  TRACK 39 AUDIO
    TITLE "4:cjc173_2569"
    INDEX 01 01:02:19
  TRACK 40 AUDIO
    TITLE "0:"
    INDEX 01 01:05:00
  TRACK 41 AUDIO
    TITLE "5:cjc173_2570"
    INDEX 01 01:05:22
  TRACK 42 AUDIO
    TITLE "0:"
    INDEX 01 01:10:23
  TRACK 43 AUDIO
    TITLE "3:cjc173_2571"
    INDEX 01 01:10:70
  TRACK 44 AUDIO
    TITLE "0:"
    INDEX 01 01:12:22
  TRACK 45 AUDIO
    TITLE "4:cjc173_2572"
    INDEX 01 01:12:45
  TRACK 46 AUDIO
    TITLE "0:"
    INDEX 01 01:15:34
  TRACK 47 AUDIO
    TITLE "5:cjc173_2573"
    INDEX 01 01:15:53
  TRACK 48 AUDIO
    TITLE "0:"
    INDEX 01 01:20:66
  TRACK 49 AUDIO
    TITLE "3:cjc173_2574"
    INDEX 01 01:21:36
  TRACK 50 AUDIO
    TITLE "0:"
    INDEX 01 01:22:36
  TRACK 51 AUDIO
    TITLE "4:cjc173_2575"
    INDEX 01 01:22:57
  TRACK 52 AUDIO
    TITLE "0:"
    INDEX 01 01:24:66
  TRACK 53 AUDIO
    TITLE "5:cjc173_2576"
    INDEX 01 01:25:10
  TRACK 54 AUDIO
    TITLE "0:"
    INDEX 01 01:29:30
  TRACK 55 AUDIO
    TITLE "3:cjc173_2577"
    INDEX 01 01:30:00
  TRACK 56 AUDIO
    TITLE "0:"
    INDEX 01 01:31:01
  TRACK 57 AUDIO
    TITLE "4:cjc173_2578"
    INDEX 01 01:31:23
  TRACK 58 AUDIO
    TITLE "0:"
    INDEX 01 01:34:15
  TRACK 59 AUDIO
    TITLE "5:cjc173_2579"
    INDEX 01 01:34:37
  TRACK 60 AUDIO
    TITLE "0:"
    INDEX 01 01:39:01
